<?xml version="1.0" standalone="no"?>
<!DOCTYPE svg PUBLIC "-//W3C//DTD SVG 20010904//EN"
 "http://www.w3.org/TR/2001/REC-SVG-20010904/DTD/svg10.dtd">
<svg version="1.0" xmlns="http://www.w3.org/2000/svg"
 width="500.000000pt" height="500.000000pt" viewBox="0 0 500.000000 500.000000"
 preserveAspectRatio="xMidYMid meet">
<metadata>
Created by potrace 1.11, written by Peter Selinger 2001-2013
</metadata>
<g transform="translate(0.000000,500.000000) scale(0.100000,-0.100000)"
fill="#000000" stroke="none">
<path d="M2376 4185 c-29 -27 -34 -56 -12 -74 14 -12 14 -29 -1 -96 -4 -16 -7
-32 -8 -35 -5 -26 -18 -89 -21 -105 -33 -167 -53 -240 -65 -237 -14 4 -90 37
-129 57 -14 7 -47 24 -75 39 -27 14 -55 26 -62 26 -15 0 -36 37 -28 49 3 5 -6
22 -19 38 l-24 28 -29 -21 c-15 -12 -29 -31 -29 -43 -1 -24 26 -60 42 -54 7 2
11 -35 11 -114 1 -65 4 -157 6 -205 4 -68 2 -88 -8 -88 -7 0 -15 5 -17 10 -2
6 -20 11 -40 13 -20 2 -43 8 -51 15 -7 6 -17 9 -20 5 -4 -3 -12 -1 -19 4 -17
14 -133 53 -157 53 -10 0 -32 5 -50 11 -24 9 -30 15 -26 30 8 26 -36 70 -63
62 -11 -3 -30 -15 -42 -28 -17 -18 -20 -27 -11 -43 6 -11 8 -22 5 -25 -3 -3 8
-8 24 -12 30 -6 50 -43 37 -65 -4 -6 -2 -10 3 -10 6 0 10 -10 9 -22 0 -13 3
-45 6 -73 4 -27 9 -79 12 -115 2 -36 6 -74 9 -86 7 -36 -7 -48 -50 -38 -22 4
-46 9 -54 10 -85 10 -126 17 -131 19 -3 2 -27 5 -53 6 -34 2 -50 8 -57 21 -6
10 -8 22 -6 26 2 4 -4 15 -15 24 -10 10 -18 15 -18 11 0 -4 -5 -2 -12 5 -7 7
-17 8 -30 1 -10 -5 -18 -6 -18 -2 0 4 -9 -5 -19 -21 -10 -15 -17 -36 -16 -45
2 -9 4 -21 4 -27 1 -6 14 -17 31 -24 16 -7 48 -32 70 -56 22 -24 44 -44 48
-44 4 0 15 -8 23 -17 9 -10 53 -52 99 -93 45 -41 145 -136 221 -210 123 -121
229 -220 313 -294 16 -14 33 -23 38 -20 5 3 6 -5 2 -20 -4 -16 -2 -26 5 -26 6
0 11 4 11 9 0 5 12 9 26 9 18 0 28 -8 34 -24 6 -16 15 -22 25 -18 8 4 21 2 28
-4 6 -6 23 -11 37 -11 14 0 34 -1 45 -1 11 -1 33 1 49 4 17 3 34 -1 42 -9 8
-7 22 -11 33 -8 13 3 21 -2 26 -16 3 -12 10 -21 15 -21 17 0 -3 -34 -33 -60
-72 -60 -231 -228 -254 -268 -17 -28 -16 -35 2 -29 20 8 28 -9 15 -34 -11 -20
-11 -20 14 -4 26 17 37 33 14 19 -12 -7 13 22 65 77 9 11 17 22 17 27 0 8 62
52 73 52 7 0 2 -44 -8 -80 -4 -13 -11 -49 -19 -99 -2 -8 -9 -15 -18 -17 -8 -1
-41 -5 -73 -9 -33 -3 -64 -9 -69 -12 -5 -3 -6 -1 -2 5 4 7 1 12 -8 12 -9 0
-16 -7 -16 -16 0 -20 -35 -14 -35 6 -1 8 8 23 18 32 12 11 17 24 13 35 -5 13
-14 5 -39 -36 -76 -126 -104 -151 -136 -127 -13 10 -23 13 -73 20 -38 5 -36
-10 2 -17 36 -8 40 -25 5 -22 -14 2 -25 -1 -25 -6 0 -5 11 -9 24 -9 14 0 28
-4 31 -10 6 -10 -44 -15 -112 -11 -18 1 -33 -3 -33 -8 0 -5 24 -8 53 -6 31 1
64 -3 78 -11 22 -12 21 -13 -28 -14 -29 0 -55 0 -58 0 -3 -1 -24 -8 -47 -16
-24 -9 -50 -17 -58 -19 -8 -2 -15 -4 -15 -5 0 -1 -7 -3 -15 -5 -31 -6 -182
-68 -224 -91 -60 -34 -166 -136 -145 -141 8 -2 42 22 76 55 54 53 187 132 222
132 6 0 11 5 11 12 0 6 3 9 6 6 3 -3 33 4 67 17 34 12 68 20 75 18 6 -3 12 0
12 7 0 6 5 8 10 5 6 -3 10 -2 10 3 0 5 12 7 27 4 23 -4 24 -6 10 -17 -10 -7
-17 -16 -17 -20 0 -4 6 -3 13 3 7 6 18 7 25 3 9 -5 3 -25 -24 -76 -19 -38 -38
-74 -42 -80 -23 -36 -48 -119 -48 -156 l1 -44 45 2 c82 5 104 5 175 -1 75 -7
115 -8 183 -4 23 2 42 -1 42 -6 0 -5 6 -4 13 1 6 5 55 8 107 7 l94 -1 0 -69
c0 -38 -3 -112 -7 -165 -6 -91 -5 -97 16 -117 20 -19 126 -54 206 -67 19 -3
42 -10 52 -16 11 -5 19 -8 19 -5 0 2 16 0 35 -4 27 -6 39 -4 52 8 15 15 12 19
-27 54 -40 36 -42 39 -26 56 15 18 20 18 74 4 32 -9 69 -12 85 -8 24 6 26 9
17 27 -6 11 -26 27 -45 36 -31 15 -34 21 -40 72 -4 31 -11 79 -16 106 -21 108
-21 115 -7 116 7 0 88 2 179 3 91 2 179 6 195 9 16 3 85 9 154 12 107 6 187
11 238 17 12 1 11 35 -3 108 -2 14 -1 30 3 36 13 19 76 45 122 50 25 2 52 5
60 7 20 3 90 47 90 55 0 4 10 18 23 32 23 27 29 62 31 187 1 66 3 72 24 76 12
2 22 1 22 -2 0 -6 77 -5 111 2 10 2 23 8 31 15 8 6 18 9 21 5 4 -3 7 -1 7 5 0
7 6 12 13 12 6 0 22 21 34 47 25 57 24 154 -2 209 -14 31 -63 109 -87 139 -90
114 -182 218 -243 274 -21 20 -49 46 -61 57 -12 12 -37 32 -56 45 -18 13 -40
31 -49 39 -8 8 -28 25 -43 36 -15 12 -27 30 -26 40 0 11 2 39 3 64 2 25 0 50
-4 55 -3 6 -9 23 -13 39 -8 31 -22 49 -48 59 -14 5 -19 -1 -24 -31 -11 -53
-12 -123 -3 -149 7 -19 3 -25 -21 -38 -16 -8 -33 -15 -39 -15 -10 0 -9 55 2
66 3 4 2 15 -3 25 -6 10 -9 22 -9 26 1 4 -3 19 -9 33 -26 58 -65 82 -82 49
-14 -25 -14 -146 -1 -196 l11 -40 -65 -64 c-36 -35 -65 -70 -65 -76 0 -7 -4
-13 -8 -13 -5 0 -28 -37 -52 -82 -23 -46 -48 -90 -55 -98 -6 -8 -18 -31 -25
-50 -7 -19 -21 -46 -30 -60 -8 -14 -35 -65 -59 -115 -25 -49 -47 -92 -50 -95
-4 -3 -18 -26 -31 -53 -23 -43 -40 -56 -43 -32 0 6 -9 19 -19 29 -10 11 -18
24 -18 28 0 5 -10 20 -22 34 -89 98 -128 151 -128 173 0 11 3 20 8 19 4 -1 18
4 32 12 14 7 26 12 28 11 5 -4 72 12 72 18 0 3 12 12 28 18 71 33 184 183 195
262 3 17 14 27 43 37 21 7 44 21 51 29 17 25 8 84 -16 101 -29 21 -39 42 -57
126 -8 40 -18 82 -20 93 -3 11 -7 33 -10 48 -2 16 -6 32 -9 37 -3 5 -1 11 5
15 6 4 8 10 5 15 -9 14 33 50 65 57 17 3 30 10 30 15 0 5 4 7 9 4 12 -8 41 4
41 16 0 6 -7 8 -15 4 -8 -3 -15 -1 -15 4 0 5 -9 11 -19 15 -26 8 -16 34 10 28
10 -3 19 -1 19 4 0 6 -10 10 -22 10 -35 -1 -88 13 -88 24 0 5 6 9 13 10 6 1 1
4 -12 8 -19 5 -29 20 -43 61 -10 30 -41 101 -68 157 -28 57 -50 109 -50 115 0
7 -9 24 -20 38 -11 14 -20 31 -20 38 0 14 -140 294 -151 302 -9 7 -62 112 -65
127 -1 7 -9 20 -18 29 -17 17 -19 37 -7 69 10 24 -2 51 -28 64 -15 8 -24 5
-45 -14z m477 -1285 c3 -19 6 -35 7 -35 1 0 3 -10 4 -22 2 -17 0 -20 -10 -12
-16 13 -38 105 -28 120 9 16 21 -6 27 -51z m-146 -1034 c-5 -27 -24 -22 -44
11 -31 51 -18 74 18 32 15 -18 27 -37 26 -43z m-93 48 c9 -3 16 -15 16 -25 0
-10 4 -19 9 -19 5 0 14 -14 21 -30 11 -26 10 -33 -5 -50 -10 -11 -19 -19 -21
-17 -5 5 -43 147 -39 147 2 0 10 -3 19 -6z m819 -54 c32 -16 62 -29 65 -28 7
1 51 -16 84 -33 10 -5 26 -9 36 -9 10 0 26 -6 36 -13 14 -10 15 -18 8 -37 -5
-14 -18 -52 -28 -85 -10 -33 -24 -66 -31 -73 -7 -7 -16 -24 -19 -38 -3 -13
-10 -24 -14 -24 -5 0 -12 -9 -15 -20 -3 -11 -11 -20 -16 -20 -5 0 -18 -9 -30
-21 -17 -17 -28 -19 -67 -14 -50 7 -61 16 -63 55 -3 58 -8 118 -14 155 -16
101 -22 185 -16 228 2 13 25 7 84 -23z m281 -190 c1 -51 -2 -94 -7 -97 -5 -3
-6 -12 -3 -20 5 -13 -14 -53 -39 -79 -17 -18 -72 -44 -79 -37 -3 4 -6 1 -6 -4
0 -15 -33 -9 -38 6 -2 6 5 20 16 29 10 9 22 27 26 40 4 12 12 22 17 22 5 0 8
3 7 8 -1 4 6 22 15 40 10 18 15 37 12 42 -3 6 0 10 7 10 9 0 18 19 24 48 16
70 18 76 29 84 16 11 17 3 19 -92z"/>
<path d="M1546 1673 c-4 -4 -38 -11 -81 -17 -69 -10 -150 -37 -225 -77 -44
-22 -80 -45 -80 -50 0 -5 -6 -9 -14 -9 -15 0 -109 -90 -101 -98 2 -2 11 2 18
9 8 8 27 23 43 34 15 11 32 25 38 30 19 17 69 48 111 68 22 11 58 28 79 39 22
11 55 21 74 24 19 2 60 11 91 18 31 8 70 16 86 18 l30 3 -33 6 c-17 3 -34 4
-36 2z"/>
<path d="M1630 1659 c0 -3 14 -6 30 -7 17 0 30 4 30 9 0 5 -13 8 -30 7 -16 -1
-30 -5 -30 -9z"/>
<path d="M1636 1632 c-3 -4 4 -9 15 -9 23 -2 25 3 4 10 -8 4 -16 3 -19 -1z"/>
<path d="M1486 1623 c-2 -2 -10 -6 -18 -7 -7 -2 -26 -8 -41 -14 -16 -7 -32
-12 -37 -12 -10 0 -82 -32 -90 -40 -3 -3 -17 -11 -32 -19 -16 -8 -28 -18 -28
-23 0 -4 -6 -8 -13 -8 -7 0 -26 -13 -42 -30 -16 -16 -32 -30 -36 -30 -4 0 -22
-13 -39 -29 -22 -20 -28 -31 -20 -36 7 -4 15 -4 19 1 9 14 98 84 106 84 3 0
17 12 31 27 14 15 31 28 37 29 7 1 30 13 51 28 21 14 53 28 72 32 19 3 34 10
34 14 0 4 10 6 23 5 13 -2 34 3 46 10 23 12 23 12 3 17 -12 3 -23 4 -26 1z"/>
<path d="M1585 1583 c-11 -2 -47 -11 -79 -19 -32 -9 -71 -18 -85 -21 -14 -2
-28 -8 -31 -13 -3 -5 -18 -12 -33 -15 -15 -4 -27 -10 -27 -14 0 -4 -16 -15
-35 -24 -19 -9 -35 -22 -35 -27 0 -6 -4 -9 -9 -6 -11 7 -131 -106 -131 -122 0
-16 39 9 60 38 8 11 19 20 24 20 6 0 20 11 31 23 11 13 31 30 44 37 14 7 30
17 35 22 6 4 22 17 35 28 13 11 32 20 43 20 10 0 18 5 18 11 0 5 4 7 10 4 5
-3 22 1 38 9 16 8 42 17 58 20 16 2 29 5 29 6 0 1 12 3 28 4 26 3 45 12 36 19
-2 2 -13 2 -24 0z"/>
<path d="M1645 1500 c-3 -5 -15 -10 -26 -10 -10 0 -19 -5 -19 -11 0 -5 -5 -7
-10 -4 -6 4 -21 0 -33 -7 -12 -8 -49 -25 -82 -38 -33 -13 -62 -26 -65 -29 -3
-3 -18 -13 -35 -21 -59 -29 -171 -138 -157 -152 7 -7 30 9 70 48 67 66 72 70
127 104 38 24 130 69 140 69 16 1 105 45 105 52 0 12 -7 11 -15 -1z"/>
</g>
</svg>
